<svg width="147" height="156" viewBox="0 0 147 156" fill="none" xmlns="http://www.w3.org/2000/svg">
<g clip-path="url(#clip0_496_464)">
<path d="M12.4899 73.7305C14.4999 72.4205 15.2499 73.7105 16.5499 74.7305C20.7799 78.0505 26.3499 76.7805 28.6999 72.0005C29.3799 70.6105 29.8799 69.4505 31.7499 69.4205C33.7699 69.3905 34.9099 67.9305 35.7599 66.2505C31.2199 57.2805 25.0699 52.5705 16.6799 49.1205C14.2599 48.1305 12.0799 48.4205 10.4999 50.4805C5.47993 57.0205 2.14993 64.7005 0.929932 73.0605C4.67993 75.1705 8.57993 76.2805 12.4799 73.7305H12.4899Z" fill="white"/>
<path d="M111.61 75.1105C115.71 70.3505 121.15 65.6705 126.48 61.7005C134.15 55.9705 141.58 51.7305 144.39 50.9205C141.17 46.5405 136.79 43.3805 131.65 42.3505C122.6 40.5405 113 42.9305 109.44 55.2205C108.13 59.7505 107.97 65.5805 108.16 70.2405C108.95 71.5205 108.95 72.7905 107.67 74.1005C105.81 76.0005 103.61 75.7905 101.65 75.2205C99.8201 74.6905 98.2701 72.6805 99.3801 70.3605C99.4101 70.3405 99.4301 70.3205 99.4601 70.2905C99.2801 63.7405 98.8001 59.4605 97.2801 54.0605C94.4401 43.9605 83.0601 39.9805 74.0401 43.9105C69.7501 45.7805 65.9301 48.0805 62.8101 51.7305C63.8901 53.7205 66.8501 54.8805 69.0501 55.7705C72.2501 57.0505 78.2101 60.8605 84.1401 65.3205C88.5901 68.6705 93.0201 72.3805 96.2301 75.6605C101.33 80.1805 107.15 80.3005 111.61 75.1205V75.1105ZM122.43 46.5205C123.83 46.4805 126 47.0305 126.35 49.1905C126.52 52.1505 125.3 53.8305 122.51 54.0805C120.34 54.2805 118.95 52.8705 118.51 51.0805C117.91 48.6605 119.28 46.5905 122.44 46.5105L122.43 46.5205ZM80.3701 51.3905C80.3701 48.9805 81.4101 47.0405 84.1101 47.0105C86.1901 46.9905 88.3601 47.9605 88.3701 50.6505C88.3701 53.2205 86.7101 54.4705 84.3001 54.8505C82.0301 54.7705 80.3701 53.3105 80.3701 51.3905Z" fill="white"/>
<path d="M88.3701 50.6606C88.3701 47.9706 86.1801 47.0006 84.1101 47.0206C81.4201 47.0506 80.3701 48.9906 80.3701 51.4006C80.3701 53.3106 82.0301 54.7806 84.3001 54.8606C86.7101 54.4806 88.3801 53.2406 88.3701 50.6606Z" fill="#141414"/>
<path d="M122.51 54.0906C125.3 53.8406 126.52 52.1606 126.35 49.2006C126 47.0306 123.83 46.4906 122.43 46.5306C119.27 46.6106 117.9 48.6706 118.5 51.1006C118.94 52.8806 120.33 54.2906 122.5 54.1006L122.51 54.0906Z" fill="#141414"/>
<path d="M74.0301 43.9106C83.0501 39.9806 94.4301 43.9606 97.2701 54.0606C98.7901 59.4606 99.2701 63.7406 99.4501 70.2906C101.84 68.1206 105.97 68.5606 107.69 69.5806C107.87 69.8006 108.02 70.0106 108.15 70.2306C107.96 65.5606 108.12 59.7406 109.43 55.2106C112.99 42.9206 122.59 40.5306 131.64 42.3406C136.78 43.3706 141.16 46.5306 144.38 50.9106C145.61 50.5906 146.6 49.9606 146.12 48.5406C143.34 40.3706 141.94 32.1006 136.35 23.3006C134.99 23.3006 134.05 21.9706 133.88 20.4706C132.98 18.0606 127.66 13.7406 124.13 12.6206C124.1 12.6806 124.07 12.7506 124.05 12.8106C122.97 12.8406 121.18 12.2506 120.69 10.4806C120.74 10.3506 120.81 10.2306 120.86 10.1106C116.49 8.3606 111.04 7.2106 104.32 7.4006C98.3901 7.5606 93.4901 8.2506 89.3201 9.6306V9.6606C88.8401 11.4306 87.0601 12.0206 85.9801 11.9906C85.9801 11.9806 85.9601 11.9506 85.9601 11.9406C82.4601 13.2506 77.5501 17.4806 76.6801 19.8106C76.5001 21.3106 74.8601 22.6206 73.4901 22.6306C73.3101 22.9106 73.1301 23.1706 72.9601 23.4606C69.3401 29.4606 66.5801 37.6006 62.9001 47.6506C62.2801 49.3606 61.9901 50.7406 62.8101 51.7206C65.9301 48.0706 69.7501 45.7706 74.0401 43.9006L74.0301 43.9106Z" fill="#ED762F"/>
<path d="M77.0401 4.86038C74.4501 5.18038 74.5601 8.65038 74.3401 10.9704C74.0501 13.9004 74.8701 17.1904 76.6701 19.8104C77.5401 17.4804 82.4501 13.2604 85.9501 11.9404C85.4101 10.6404 80.8601 4.39038 77.0501 4.86038H77.0401Z" fill="white"/>
<path d="M99.4501 70.2905C99.4501 70.2905 99.3901 70.3305 99.3701 70.3605C98.2601 72.6705 99.8101 74.6905 101.64 75.2205C103.59 75.7805 105.8 76.0005 107.66 74.1005C108.95 72.7905 108.95 71.5205 108.15 70.2405C108.02 70.0205 107.87 69.8105 107.69 69.5905C105.98 68.5705 101.84 68.1305 99.4501 70.3005V70.2905Z" fill="#141414"/>
<path d="M76.6699 19.8106C74.8799 17.1906 74.0599 13.9006 74.3399 10.9706C74.5699 8.65059 74.4599 5.18059 77.0399 4.86059C80.8599 4.39059 85.4099 10.6406 85.9399 11.9406C85.9399 11.9506 85.9599 11.9806 85.9599 11.9906C87.0399 12.0206 88.8299 11.4306 89.3199 9.66059V9.63059C87.1599 4.26059 83.0499 3.24059 78.6199 0.800587C76.4599 -0.389413 74.0999 0.940587 72.6499 2.84059C68.9899 7.64059 70.0099 17.9206 73.4499 22.6306H73.4699C74.8399 22.6206 76.4799 21.3006 76.6599 19.8106H76.6699Z" fill="#141414"/>
<path d="M136.6 10.1604C136.53 8.19042 136.42 6.88042 136.17 6.05042C135.89 5.54042 135.55 5.13042 135.13 4.86042C134.82 4.79042 134.44 4.82042 133.98 4.92042C130.28 5.74042 125.18 10.2404 124.13 12.6304C127.66 13.7504 132.98 18.0704 133.88 20.4804C135.67 17.8704 136.7 13.0904 136.6 10.1504V10.1604Z" fill="white"/>
<path d="M124.05 12.8205C124.07 12.7605 124.11 12.6905 124.13 12.6305C125.18 10.2405 130.28 5.74051 133.98 4.92051C134.44 4.82051 134.82 4.79051 135.13 4.86051C135.62 4.97051 135.95 5.33051 136.17 6.05051C136.42 6.88051 136.53 8.19051 136.6 10.1605C136.7 13.1005 135.67 17.8805 133.88 20.4905C134.06 21.9905 134.99 23.3105 136.35 23.3205C139.8 18.6105 142.23 8.45051 139.37 3.13051C138.24 1.02051 137.67 -0.76949 134.22 0.36051C129.51 1.90051 123.15 4.96051 120.85 10.1305C120.79 10.2505 120.73 10.3805 120.68 10.5005C121.17 12.2705 122.95 12.8605 124.04 12.8305L124.05 12.8205Z" fill="#141414"/>
<path d="M135.76 86.8704C133.7 79.8204 130.92 72.7704 127.28 65.5104C126.78 64.5004 126.51 63.0104 126.48 61.6904C121.16 65.6604 115.72 70.3504 111.61 75.1004C107.14 80.2804 101.32 80.1504 96.2301 75.6404C93.0201 72.3604 88.5901 68.6504 84.1401 65.3004C83.2901 66.7304 82.3001 68.1204 81.6601 69.6404C78.9301 76.1004 76.3001 81.4704 74.0701 86.8604C69.6201 97.6204 66.7401 108.5 67.7201 128.43C67.8901 131.86 69.5501 138.85 71.2101 141.7C71.2101 141.7 70.3401 142.52 67.7201 141.37C57.5101 136.65 52.4601 125.98 50.3301 115.75C48.0601 104.86 47.6301 97.0204 44.8301 86.8604C44.5201 85.7504 44.2001 84.6204 43.8301 83.4504C41.3701 75.6104 38.1001 70.2004 35.7701 66.2404C34.9201 67.9204 33.7801 69.3804 31.7601 69.4104C29.8901 69.4404 29.3901 70.6004 28.7101 71.9904C26.3601 76.7704 20.7901 78.0304 16.5601 74.7204C15.2601 73.7004 14.5101 72.4104 12.5001 73.7204C8.59008 76.2704 4.69008 75.1704 0.950076 73.0504C0.950076 73.0504 0.240076 76.8704 0.130076 78.8204C-0.0299238 81.5504 -0.00992384 84.2304 0.140076 86.8604C0.940076 100.89 6.00008 113.54 14.0601 125.69C27.2801 145.62 45.6401 154 68.8401 153.58C70.5401 153.63 72.2501 153.68 73.9501 153.73C79.7201 154.06 85.4901 154.38 91.2601 154.71C90.3901 140.87 102.23 138.94 102.21 154.79H108.77C108.88 138.15 120.68 145.89 119.27 154.69C132.36 154.79 140.03 145.69 140.57 133.56C141.31 116.72 140.16 101.79 135.78 86.8504L135.76 86.8704Z" fill="#ED762F"/>
<path d="M121.8 104.96C121.63 101.45 120.1 98.3805 116.86 97.1005C113.61 95.8205 108.98 98.3905 109.07 104.9C109.33 121.54 108.86 138.18 108.75 154.81C112.25 155.25 115.75 155.301 119.25 154.711C120.66 145.911 121.04 137.7 121.56 129.4C122.34 121.27 122.18 113.11 121.79 104.95L121.8 104.96Z" fill="#141414"/>
<path d="M97.6601 98.4005C94.2601 95.0505 89.5101 97.1305 88.4201 101.711C87.5101 105.531 88.1101 109.271 88.6801 113.211C90.6701 126.981 90.3701 140.89 91.2401 154.73C94.8801 155.33 98.5401 155.25 102.19 154.811C102.21 138.961 102.07 123.121 101.17 107.281C101 104.171 99.8601 100.571 97.6501 98.3905L97.6601 98.4005Z" fill="#141414"/>
</g>
<defs>
<clipPath id="clip0_496_464">
<rect width="146.25" height="155.16" fill="white" transform="translate(0 0.000488281)"/>
</clipPath>
</defs>
</svg>
